<svg xmlns="http://www.w3.org/2000/svg" viewBox="0 0 500 500" width="500" height="500">
  <defs>
    <linearGradient id="goldGrad" x1="0%" y1="0%" x2="100%" y2="100%">
      <stop offset="0%" style="stop-color:#D4A017"/>
      <stop offset="100%" style="stop-color:#C49B10"/>
    </linearGradient>
    <linearGradient id="redGrad" x1="0%" y1="0%" x2="100%" y2="100%">
      <stop offset="0%" style="stop-color:#C41E3A"/>
      <stop offset="100%" style="stop-color:#9B1B30"/>
    </linearGradient>
    <linearGradient id="bamboo" x1="0%" y1="0%" x2="0%" y2="100%">
      <stop offset="0%" style="stop-color:#C9A96E"/>
      <stop offset="50%" style="stop-color:#B8944A"/>
      <stop offset="100%" style="stop-color:#A3813D"/>
    </linearGradient>
    <linearGradient id="bambooRim" x1="0%" y1="0%" x2="0%" y2="100%">
      <stop offset="0%" style="stop-color:#D4B87A"/>
      <stop offset="100%" style="stop-color:#B8944A"/>
    </linearGradient>
    <filter id="shadow">
      <feDropShadow dx="0" dy="6" stdDeviation="10" flood-color="#00000035"/>
    </filter>
  </defs>
  <circle cx="250" cy="250" r="245" fill="#1a1a2e"/>
  <circle cx="250" cy="250" r="235" fill="url(#redGrad)" filter="url(#shadow)"/>
  <circle cx="250" cy="250" r="220" fill="none" stroke="#D4A017" stroke-width="2" opacity="0.4"/>
  <g opacity="0.25" fill="#D4A017">
    <path d="M100 80 L100 60 L120 60 M100 60 L130 90"/>
    <path d="M400 80 L400 60 L380 60 M400 60 L370 90"/>
    <path d="M100 420 L100 440 L120 440 M100 440 L130 410"/>
    <path d="M400 420 L400 440 L380 440 M400 440 L370 410"/>
  </g>
  <ellipse cx="250" cy="240" rx="110" ry="30" fill="url(#bamboo)" opacity="0.9"/>
  <rect x="140" y="210" width="220" height="30" fill="url(#bamboo)" opacity="0.9"/>
  <ellipse cx="250" cy="210" rx="110" ry="30" fill="url(#bambooRim)"/>
  <line x1="160" y1="215" x2="160" y2="235" stroke="#A3813D" stroke-width="1" opacity="0.4"/>
  <line x1="190" y1="215" x2="190" y2="237" stroke="#A3813D" stroke-width="1" opacity="0.4"/>
  <line x1="220" y1="215" x2="220" y2="239" stroke="#A3813D" stroke-width="1" opacity="0.4"/>
  <line x1="250" y1="215" x2="250" y2="240" stroke="#A3813D" stroke-width="1" opacity="0.4"/>
  <line x1="280" y1="215" x2="280" y2="239" stroke="#A3813D" stroke-width="1" opacity="0.4"/>
  <line x1="310" y1="215" x2="310" y2="237" stroke="#A3813D" stroke-width="1" opacity="0.4"/>
  <line x1="340" y1="215" x2="340" y2="235" stroke="#A3813D" stroke-width="1" opacity="0.4"/>
  <ellipse cx="250" cy="210" rx="110" ry="30" fill="none" stroke="#D4B87A" stroke-width="3"/>
  <g transform="translate(205, 188)">
    <ellipse cx="0" cy="8" rx="22" ry="16" fill="#E8D4A0"/>
    <ellipse cx="0" cy="5" rx="20" ry="14" fill="#F0DFB0"/>
    <path d="M-18 8 Q-15 0 -10 5" fill="none" stroke="#D4C490" stroke-width="1"/>
    <path d="M-12 -5 Q-5 -8 0 -3" fill="none" stroke="#D4C490" stroke-width="1"/>
    <path d="M5 -5 Q12 -8 16 0" fill="none" stroke="#D4C490" stroke-width="1"/>
    <ellipse cx="0" cy="0" rx="13" ry="9" fill="#E8A090"/>
    <ellipse cx="-3" cy="-1" rx="10" ry="7" fill="#D4948A"/>
    <circle cx="3" cy="-2" r="3" fill="#E86830" opacity="0.8"/>
    <ellipse cx="-5" cy="2" rx="4" ry="3" fill="#8B7355" opacity="0.6"/>
  </g>
  <g transform="translate(250, 182)">
    <ellipse cx="0" cy="8" rx="22" ry="16" fill="#E8D4A0"/>
    <ellipse cx="0" cy="5" rx="20" ry="14" fill="#F0DFB0"/>
    <ellipse cx="0" cy="0" rx="13" ry="9" fill="#E8A090"/>
    <ellipse cx="2" cy="0" rx="10" ry="7" fill="#D4948A"/>
    <circle cx="-4" cy="-1" r="3" fill="#E86830" opacity="0.8"/>
    <ellipse cx="5" cy="1" rx="3" ry="3" fill="#8B7355" opacity="0.5"/>
  </g>
  <g transform="translate(295, 188)">
    <ellipse cx="0" cy="8" rx="22" ry="16" fill="#E8D4A0"/>
    <ellipse cx="0" cy="5" rx="20" ry="14" fill="#F0DFB0"/>
    <ellipse cx="0" cy="0" rx="13" ry="9" fill="#E8A090"/>
    <ellipse cx="-2" cy="0" rx="10" ry="7" fill="#D4948A"/>
    <circle cx="4" cy="-2" r="3" fill="#E86830" opacity="0.8"/>
    <ellipse cx="-6" cy="1" rx="4" ry="2.5" fill="#8B7355" opacity="0.55"/>
  </g>
  <g transform="translate(248, 200)">
    <ellipse cx="0" cy="6" rx="18" ry="12" fill="#E0CFA0"/>
    <ellipse cx="0" cy="3" rx="16" ry="10" fill="#ECDBB0"/>
    <ellipse cx="0" cy="0" rx="10" ry="7" fill="#E0A090"/>
    <circle cx="0" cy="-1" r="2.5" fill="#E86830" opacity="0.7"/>
  </g>
  <g opacity="0.35" fill="none" stroke="white" stroke-width="2" stroke-linecap="round">
    <path d="M215 165 Q220 150 215 135 Q210 120 215 105"><animate attributeName="d" values="M215 165 Q220 150 215 135 Q210 120 215 105;M215 165 Q210 148 215 132 Q220 118 215 105;M215 165 Q220 150 215 135 Q210 120 215 105" dur="3s" repeatCount="indefinite"/></path>
    <path d="M250 160 Q255 143 250 128 Q245 113 250 98"><animate attributeName="d" values="M250 160 Q255 143 250 128 Q245 113 250 98;M250 160 Q245 141 250 125 Q255 111 250 98;M250 160 Q255 143 250 128 Q245 113 250 98" dur="3.5s" repeatCount="indefinite"/></path>
    <path d="M285 165 Q290 150 285 135 Q280 120 285 105"><animate attributeName="d" values="M285 165 Q290 150 285 135 Q280 120 285 105;M285 165 Q280 148 285 132 Q290 118 285 105;M285 165 Q290 150 285 135 Q280 120 285 105" dur="2.8s" repeatCount="indefinite"/></path>
  </g>
  <text x="250" y="300" text-anchor="middle" font-family="Georgia, 'Times New Roman', serif" font-size="52" font-weight="bold" fill="url(#goldGrad)" letter-spacing="6">DY DIMSUM</text>
  <line x1="150" y1="312" x2="350" y2="312" stroke="#D4A017" stroke-width="1.5" opacity="0.5"/>
  <circle cx="250" cy="312" r="4" fill="#D4A017" opacity="0.7"/>
  <text x="250" y="340" text-anchor="middle" font-family="Arial, Helvetica, sans-serif" font-size="14" fill="white" letter-spacing="6" opacity="0.9">HANDMADE PREMIUM</text>
  <text x="250" y="370" text-anchor="middle" font-family="Arial, Helvetica, sans-serif" font-size="13" fill="#D4A017" letter-spacing="8" opacity="0.7">MEDAN</text>
  <g transform="translate(250, 400)" opacity="0.6">
    <rect x="-28" y="-10" width="56" height="20" rx="10" fill="none" stroke="#D4A017" stroke-width="1"/>
    <text x="0" y="4" text-anchor="middle" font-family="Arial" font-size="9" fill="#D4A017" letter-spacing="2">HALAL</text>
  </g>
</svg>